<mxfile host="app.diagrams.net" modified="2020-10-10T02:26:05.357Z" agent="5.0 (Macintosh; Intel Mac OS X 10_15_6) AppleWebKit/537.36 (KHTML, like Gecko) Chrome/85.0.4183.121 Safari/537.36" etag="FNv84v-KnhG3prKHj2ae" version="13.7.9" type="github">
  <diagram id="R2lEEEUBdFMjLlhIrx00" name="Page-1">
    <mxGraphModel dx="1963" dy="1795" grid="1" gridSize="10" guides="1" tooltips="1" connect="1" arrows="1" fold="1" page="1" pageScale="1" pageWidth="850" pageHeight="1100" math="0" shadow="0" extFonts="Permanent Marker^https://fonts.googleapis.com/css?family=Permanent+Marker">
      <root>
        <mxCell id="0" />
        <mxCell id="1" parent="0" />
        <mxCell id="IvAgyMszGvQg7MPu8ID8-2" value="SELLS" style="shape=rhombus;perimeter=rhombusPerimeter;whiteSpace=wrap;html=1;align=center;" vertex="1" parent="1">
          <mxGeometry x="520" y="-90" width="120" height="60" as="geometry" />
        </mxCell>
        <mxCell id="IvAgyMszGvQg7MPu8ID8-15" style="edgeStyle=orthogonalEdgeStyle;rounded=0;orthogonalLoop=1;jettySize=auto;html=1;exitX=0;exitY=0.5;exitDx=0;exitDy=0;entryX=1;entryY=0.5;entryDx=0;entryDy=0;endArrow=none;endFill=0;" edge="1" parent="1" source="IvAgyMszGvQg7MPu8ID8-3" target="IvAgyMszGvQg7MPu8ID8-11">
          <mxGeometry relative="1" as="geometry" />
        </mxCell>
        <mxCell id="IvAgyMszGvQg7MPu8ID8-26" value="" style="edgeStyle=orthogonalEdgeStyle;rounded=0;orthogonalLoop=1;jettySize=auto;html=1;endArrow=none;endFill=0;" edge="1" parent="1" source="IvAgyMszGvQg7MPu8ID8-3" target="IvAgyMszGvQg7MPu8ID8-25">
          <mxGeometry relative="1" as="geometry" />
        </mxCell>
        <mxCell id="IvAgyMszGvQg7MPu8ID8-3" value="BUY HOME" style="shape=rhombus;perimeter=rhombusPerimeter;whiteSpace=wrap;html=1;align=center;" vertex="1" parent="1">
          <mxGeometry x="440" y="240" width="120" height="60" as="geometry" />
        </mxCell>
        <mxCell id="IvAgyMszGvQg7MPu8ID8-27" value="" style="edgeStyle=orthogonalEdgeStyle;rounded=0;orthogonalLoop=1;jettySize=auto;html=1;endArrow=none;endFill=0;" edge="1" parent="1" source="IvAgyMszGvQg7MPu8ID8-4" target="IvAgyMszGvQg7MPu8ID8-25">
          <mxGeometry relative="1" as="geometry" />
        </mxCell>
        <mxCell id="IvAgyMszGvQg7MPu8ID8-4" value="HOUSE INSURANCE" style="shape=rhombus;perimeter=rhombusPerimeter;whiteSpace=wrap;html=1;align=center;" vertex="1" parent="1">
          <mxGeometry x="670" y="120" width="160" height="90" as="geometry" />
        </mxCell>
        <mxCell id="IvAgyMszGvQg7MPu8ID8-14" style="edgeStyle=orthogonalEdgeStyle;rounded=0;orthogonalLoop=1;jettySize=auto;html=1;exitX=0;exitY=0.5;exitDx=0;exitDy=0;entryX=1;entryY=0.75;entryDx=0;entryDy=0;endArrow=none;endFill=0;" edge="1" parent="1" source="IvAgyMszGvQg7MPu8ID8-6" target="IvAgyMszGvQg7MPu8ID8-11">
          <mxGeometry relative="1" as="geometry" />
        </mxCell>
        <mxCell id="IvAgyMszGvQg7MPu8ID8-24" value="" style="edgeStyle=orthogonalEdgeStyle;rounded=0;orthogonalLoop=1;jettySize=auto;html=1;endArrow=none;endFill=0;" edge="1" parent="1" source="IvAgyMszGvQg7MPu8ID8-6" target="IvAgyMszGvQg7MPu8ID8-23">
          <mxGeometry relative="1" as="geometry" />
        </mxCell>
        <mxCell id="IvAgyMszGvQg7MPu8ID8-6" value="BUY AUTO" style="shape=rhombus;perimeter=rhombusPerimeter;whiteSpace=wrap;html=1;align=center;" vertex="1" parent="1">
          <mxGeometry x="440" y="340" width="120" height="60" as="geometry" />
        </mxCell>
        <mxCell id="IvAgyMszGvQg7MPu8ID8-16" style="edgeStyle=orthogonalEdgeStyle;rounded=0;orthogonalLoop=1;jettySize=auto;html=1;exitX=0.5;exitY=1;exitDx=0;exitDy=0;entryX=0.5;entryY=0;entryDx=0;entryDy=0;endArrow=none;endFill=0;" edge="1" parent="1" source="IvAgyMszGvQg7MPu8ID8-7" target="IvAgyMszGvQg7MPu8ID8-11">
          <mxGeometry relative="1" as="geometry" />
        </mxCell>
        <mxCell id="IvAgyMszGvQg7MPu8ID8-7" value="BUY LIFE" style="shape=rhombus;perimeter=rhombusPerimeter;whiteSpace=wrap;html=1;align=center;" vertex="1" parent="1">
          <mxGeometry x="260" y="190" width="120" height="60" as="geometry" />
        </mxCell>
        <mxCell id="IvAgyMszGvQg7MPu8ID8-28" value="" style="edgeStyle=orthogonalEdgeStyle;rounded=0;orthogonalLoop=1;jettySize=auto;html=1;endArrow=none;endFill=0;" edge="1" parent="1" source="IvAgyMszGvQg7MPu8ID8-9" target="IvAgyMszGvQg7MPu8ID8-23">
          <mxGeometry relative="1" as="geometry" />
        </mxCell>
        <mxCell id="IvAgyMszGvQg7MPu8ID8-9" value="VEHICLE INSURANCE" style="shape=rhombus;perimeter=rhombusPerimeter;whiteSpace=wrap;html=1;align=center;" vertex="1" parent="1">
          <mxGeometry x="625" y="450" width="160" height="90" as="geometry" />
        </mxCell>
        <mxCell id="IvAgyMszGvQg7MPu8ID8-11" value="CUSTOMERS" style="whiteSpace=wrap;html=1;align=center;" vertex="1" parent="1">
          <mxGeometry x="270" y="310" width="100" height="40" as="geometry" />
        </mxCell>
        <mxCell id="IvAgyMszGvQg7MPu8ID8-32" value="" style="edgeStyle=orthogonalEdgeStyle;rounded=0;orthogonalLoop=1;jettySize=auto;html=1;endArrow=none;endFill=0;" edge="1" parent="1" source="IvAgyMszGvQg7MPu8ID8-17" target="IvAgyMszGvQg7MPu8ID8-29">
          <mxGeometry relative="1" as="geometry" />
        </mxCell>
        <mxCell id="IvAgyMszGvQg7MPu8ID8-17" value="LIFE INSURANCE POLICY" style="whiteSpace=wrap;html=1;align=center;" vertex="1" parent="1">
          <mxGeometry x="270" y="100" width="110" height="50" as="geometry" />
        </mxCell>
        <mxCell id="IvAgyMszGvQg7MPu8ID8-19" value="" style="edgeStyle=orthogonalEdgeStyle;rounded=0;orthogonalLoop=1;jettySize=auto;html=1;endArrow=none;endFill=0;" edge="1" parent="1" source="IvAgyMszGvQg7MPu8ID8-18" target="IvAgyMszGvQg7MPu8ID8-17">
          <mxGeometry relative="1" as="geometry" />
        </mxCell>
        <mxCell id="IvAgyMszGvQg7MPu8ID8-18" value="INSURES" style="shape=rhombus;perimeter=rhombusPerimeter;whiteSpace=wrap;html=1;align=center;" vertex="1" parent="1">
          <mxGeometry x="50" y="95" width="120" height="60" as="geometry" />
        </mxCell>
        <mxCell id="IvAgyMszGvQg7MPu8ID8-21" value="" style="edgeStyle=orthogonalEdgeStyle;rounded=0;orthogonalLoop=1;jettySize=auto;html=1;endArrow=none;endFill=0;" edge="1" parent="1" source="IvAgyMszGvQg7MPu8ID8-20" target="IvAgyMszGvQg7MPu8ID8-18">
          <mxGeometry relative="1" as="geometry" />
        </mxCell>
        <mxCell id="IvAgyMszGvQg7MPu8ID8-22" style="edgeStyle=orthogonalEdgeStyle;rounded=0;orthogonalLoop=1;jettySize=auto;html=1;exitX=0.5;exitY=1;exitDx=0;exitDy=0;entryX=0;entryY=0.5;entryDx=0;entryDy=0;endArrow=none;endFill=0;" edge="1" parent="1" source="IvAgyMszGvQg7MPu8ID8-105" target="IvAgyMszGvQg7MPu8ID8-11">
          <mxGeometry relative="1" as="geometry" />
        </mxCell>
        <mxCell id="IvAgyMszGvQg7MPu8ID8-20" value="PERSON" style="whiteSpace=wrap;html=1;align=center;" vertex="1" parent="1">
          <mxGeometry x="-50" y="180" width="100" height="40" as="geometry" />
        </mxCell>
        <mxCell id="IvAgyMszGvQg7MPu8ID8-79" style="edgeStyle=orthogonalEdgeStyle;rounded=0;orthogonalLoop=1;jettySize=auto;html=1;exitX=0.75;exitY=1;exitDx=0;exitDy=0;entryX=0;entryY=0;entryDx=0;entryDy=0;endArrow=none;endFill=0;" edge="1" parent="1" source="IvAgyMszGvQg7MPu8ID8-23" target="IvAgyMszGvQg7MPu8ID8-77">
          <mxGeometry relative="1" as="geometry" />
        </mxCell>
        <mxCell id="IvAgyMszGvQg7MPu8ID8-23" value="AUTO INSURANCE POLICY" style="whiteSpace=wrap;html=1;align=center;" vertex="1" parent="1">
          <mxGeometry x="630" y="340" width="150" height="60" as="geometry" />
        </mxCell>
        <mxCell id="IvAgyMszGvQg7MPu8ID8-25" value="&amp;nbsp;HOME INSURANCE POLICY" style="whiteSpace=wrap;html=1;align=center;" vertex="1" parent="1">
          <mxGeometry x="605" y="240" width="150" height="60" as="geometry" />
        </mxCell>
        <mxCell id="IvAgyMszGvQg7MPu8ID8-33" value="" style="edgeStyle=orthogonalEdgeStyle;rounded=0;orthogonalLoop=1;jettySize=auto;html=1;endArrow=none;endFill=0;" edge="1" parent="1" source="IvAgyMszGvQg7MPu8ID8-29" target="IvAgyMszGvQg7MPu8ID8-31">
          <mxGeometry relative="1" as="geometry" />
        </mxCell>
        <mxCell id="IvAgyMszGvQg7MPu8ID8-34" style="edgeStyle=orthogonalEdgeStyle;rounded=0;orthogonalLoop=1;jettySize=auto;html=1;exitX=1;exitY=0.25;exitDx=0;exitDy=0;entryX=0.5;entryY=1;entryDx=0;entryDy=0;endArrow=none;endFill=0;" edge="1" parent="1" source="IvAgyMszGvQg7MPu8ID8-29" target="IvAgyMszGvQg7MPu8ID8-2">
          <mxGeometry relative="1" as="geometry" />
        </mxCell>
        <mxCell id="IvAgyMszGvQg7MPu8ID8-118" style="edgeStyle=orthogonalEdgeStyle;rounded=0;orthogonalLoop=1;jettySize=auto;html=1;exitX=0;exitY=0.5;exitDx=0;exitDy=0;entryX=1;entryY=0.5;entryDx=0;entryDy=0;endArrow=none;endFill=0;" edge="1" parent="1" source="IvAgyMszGvQg7MPu8ID8-29" target="IvAgyMszGvQg7MPu8ID8-114">
          <mxGeometry relative="1" as="geometry" />
        </mxCell>
        <mxCell id="IvAgyMszGvQg7MPu8ID8-119" style="edgeStyle=orthogonalEdgeStyle;rounded=0;orthogonalLoop=1;jettySize=auto;html=1;exitX=0;exitY=0.25;exitDx=0;exitDy=0;entryX=1;entryY=1;entryDx=0;entryDy=0;endArrow=none;endFill=0;" edge="1" parent="1" source="IvAgyMszGvQg7MPu8ID8-29" target="IvAgyMszGvQg7MPu8ID8-108">
          <mxGeometry relative="1" as="geometry" />
        </mxCell>
        <mxCell id="IvAgyMszGvQg7MPu8ID8-120" style="edgeStyle=orthogonalEdgeStyle;rounded=0;orthogonalLoop=1;jettySize=auto;html=1;exitX=0;exitY=0;exitDx=0;exitDy=0;entryX=1;entryY=1;entryDx=0;entryDy=0;endArrow=none;endFill=0;" edge="1" parent="1" source="IvAgyMszGvQg7MPu8ID8-29" target="IvAgyMszGvQg7MPu8ID8-109">
          <mxGeometry relative="1" as="geometry" />
        </mxCell>
        <mxCell id="IvAgyMszGvQg7MPu8ID8-131" style="edgeStyle=orthogonalEdgeStyle;rounded=0;orthogonalLoop=1;jettySize=auto;html=1;exitX=1;exitY=1;exitDx=0;exitDy=0;entryX=0.25;entryY=0;entryDx=0;entryDy=0;endArrow=none;endFill=0;" edge="1" parent="1" source="IvAgyMszGvQg7MPu8ID8-29" target="IvAgyMszGvQg7MPu8ID8-25">
          <mxGeometry relative="1" as="geometry" />
        </mxCell>
        <mxCell id="IvAgyMszGvQg7MPu8ID8-132" style="edgeStyle=orthogonalEdgeStyle;rounded=0;orthogonalLoop=1;jettySize=auto;html=1;exitX=0.75;exitY=1;exitDx=0;exitDy=0;entryX=0;entryY=0.25;entryDx=0;entryDy=0;endArrow=none;endFill=0;" edge="1" parent="1" source="IvAgyMszGvQg7MPu8ID8-29" target="IvAgyMszGvQg7MPu8ID8-23">
          <mxGeometry relative="1" as="geometry" />
        </mxCell>
        <mxCell id="IvAgyMszGvQg7MPu8ID8-29" value="INSURANCE POLICY" style="whiteSpace=wrap;html=1;align=center;" vertex="1" parent="1">
          <mxGeometry x="510" y="40" width="110" height="50" as="geometry" />
        </mxCell>
        <mxCell id="IvAgyMszGvQg7MPu8ID8-87" value="" style="edgeStyle=orthogonalEdgeStyle;rounded=0;orthogonalLoop=1;jettySize=auto;html=1;endArrow=none;endFill=0;" edge="1" parent="1" source="IvAgyMszGvQg7MPu8ID8-31" target="IvAgyMszGvQg7MPu8ID8-86">
          <mxGeometry relative="1" as="geometry" />
        </mxCell>
        <mxCell id="IvAgyMszGvQg7MPu8ID8-31" value="PAID" style="shape=rhombus;double=1;perimeter=rhombusPerimeter;whiteSpace=wrap;html=1;align=center;" vertex="1" parent="1">
          <mxGeometry x="265" y="-100" width="120" height="60" as="geometry" />
        </mxCell>
        <mxCell id="IvAgyMszGvQg7MPu8ID8-36" value="" style="edgeStyle=orthogonalEdgeStyle;rounded=0;orthogonalLoop=1;jettySize=auto;html=1;endArrow=none;endFill=0;" edge="1" parent="1" source="IvAgyMszGvQg7MPu8ID8-35" target="IvAgyMszGvQg7MPu8ID8-2">
          <mxGeometry relative="1" as="geometry" />
        </mxCell>
        <mxCell id="IvAgyMszGvQg7MPu8ID8-35" value="INSURANCE BROKERS" style="whiteSpace=wrap;html=1;align=center;" vertex="1" parent="1">
          <mxGeometry x="530" y="-180" width="100" height="40" as="geometry" />
        </mxCell>
        <mxCell id="IvAgyMszGvQg7MPu8ID8-38" value="" style="edgeStyle=orthogonalEdgeStyle;rounded=0;orthogonalLoop=1;jettySize=auto;html=1;endArrow=none;endFill=0;" edge="1" parent="1" source="IvAgyMszGvQg7MPu8ID8-37" target="IvAgyMszGvQg7MPu8ID8-23">
          <mxGeometry relative="1" as="geometry" />
        </mxCell>
        <mxCell id="IvAgyMszGvQg7MPu8ID8-37" value="DRIVER INSURANCE" style="shape=rhombus;perimeter=rhombusPerimeter;whiteSpace=wrap;html=1;align=center;" vertex="1" parent="1">
          <mxGeometry x="860" y="325" width="160" height="90" as="geometry" />
        </mxCell>
        <mxCell id="IvAgyMszGvQg7MPu8ID8-44" value="" style="edgeStyle=orthogonalEdgeStyle;rounded=0;orthogonalLoop=1;jettySize=auto;html=1;endArrow=none;endFill=0;" edge="1" parent="1" source="IvAgyMszGvQg7MPu8ID8-41" target="IvAgyMszGvQg7MPu8ID8-4">
          <mxGeometry relative="1" as="geometry" />
        </mxCell>
        <mxCell id="IvAgyMszGvQg7MPu8ID8-41" value="HOUSE" style="whiteSpace=wrap;html=1;align=center;" vertex="1" parent="1">
          <mxGeometry x="870" y="145" width="100" height="40" as="geometry" />
        </mxCell>
        <mxCell id="IvAgyMszGvQg7MPu8ID8-45" value="" style="edgeStyle=orthogonalEdgeStyle;rounded=0;orthogonalLoop=1;jettySize=auto;html=1;endArrow=none;endFill=0;" edge="1" parent="1" source="IvAgyMszGvQg7MPu8ID8-42" target="IvAgyMszGvQg7MPu8ID8-9">
          <mxGeometry relative="1" as="geometry" />
        </mxCell>
        <mxCell id="IvAgyMszGvQg7MPu8ID8-55" value="" style="edgeStyle=orthogonalEdgeStyle;rounded=0;orthogonalLoop=1;jettySize=auto;html=1;endArrow=none;endFill=0;" edge="1" parent="1" source="IvAgyMszGvQg7MPu8ID8-42" target="IvAgyMszGvQg7MPu8ID8-51">
          <mxGeometry relative="1" as="geometry" />
        </mxCell>
        <mxCell id="IvAgyMszGvQg7MPu8ID8-42" value="VEHICLE" style="whiteSpace=wrap;html=1;align=center;" vertex="1" parent="1">
          <mxGeometry x="655" y="600" width="100" height="40" as="geometry" />
        </mxCell>
        <mxCell id="IvAgyMszGvQg7MPu8ID8-46" value="" style="edgeStyle=orthogonalEdgeStyle;rounded=0;orthogonalLoop=1;jettySize=auto;html=1;endArrow=none;endFill=0;" edge="1" parent="1" source="IvAgyMszGvQg7MPu8ID8-43" target="IvAgyMszGvQg7MPu8ID8-37">
          <mxGeometry relative="1" as="geometry" />
        </mxCell>
        <mxCell id="IvAgyMszGvQg7MPu8ID8-144" style="edgeStyle=orthogonalEdgeStyle;rounded=0;orthogonalLoop=1;jettySize=auto;html=1;exitX=0;exitY=0.5;exitDx=0;exitDy=0;endArrow=none;endFill=0;entryX=0.5;entryY=1;entryDx=0;entryDy=0;" edge="1" parent="1" source="IvAgyMszGvQg7MPu8ID8-43" target="IvAgyMszGvQg7MPu8ID8-105">
          <mxGeometry relative="1" as="geometry">
            <mxPoint x="110" y="410" as="targetPoint" />
          </mxGeometry>
        </mxCell>
        <mxCell id="IvAgyMszGvQg7MPu8ID8-43" value="DRIVER" style="whiteSpace=wrap;html=1;align=center;" vertex="1" parent="1">
          <mxGeometry x="890" y="530" width="100" height="40" as="geometry" />
        </mxCell>
        <mxCell id="IvAgyMszGvQg7MPu8ID8-60" style="edgeStyle=orthogonalEdgeStyle;rounded=0;orthogonalLoop=1;jettySize=auto;html=1;exitX=0;exitY=0;exitDx=0;exitDy=0;entryX=1;entryY=0.75;entryDx=0;entryDy=0;endArrow=none;endFill=0;" edge="1" parent="1" source="IvAgyMszGvQg7MPu8ID8-49" target="IvAgyMszGvQg7MPu8ID8-42">
          <mxGeometry relative="1" as="geometry" />
        </mxCell>
        <mxCell id="IvAgyMszGvQg7MPu8ID8-49" value="year" style="ellipse;whiteSpace=wrap;html=1;align=center;" vertex="1" parent="1">
          <mxGeometry x="810" y="640" width="100" height="40" as="geometry" />
        </mxCell>
        <mxCell id="IvAgyMszGvQg7MPu8ID8-61" value="" style="edgeStyle=orthogonalEdgeStyle;rounded=0;orthogonalLoop=1;jettySize=auto;html=1;endArrow=none;endFill=0;" edge="1" parent="1" source="IvAgyMszGvQg7MPu8ID8-50" target="IvAgyMszGvQg7MPu8ID8-42">
          <mxGeometry relative="1" as="geometry" />
        </mxCell>
        <mxCell id="IvAgyMszGvQg7MPu8ID8-50" value="serial number" style="ellipse;whiteSpace=wrap;html=1;align=center;" vertex="1" parent="1">
          <mxGeometry x="790" y="590" width="100" height="40" as="geometry" />
        </mxCell>
        <mxCell id="IvAgyMszGvQg7MPu8ID8-51" value="model" style="ellipse;whiteSpace=wrap;html=1;align=center;" vertex="1" parent="1">
          <mxGeometry x="510" y="600" width="100" height="40" as="geometry" />
        </mxCell>
        <mxCell id="IvAgyMszGvQg7MPu8ID8-56" style="edgeStyle=orthogonalEdgeStyle;rounded=0;orthogonalLoop=1;jettySize=auto;html=1;exitX=1;exitY=0;exitDx=0;exitDy=0;entryX=0;entryY=1;entryDx=0;entryDy=0;endArrow=none;endFill=0;" edge="1" parent="1" source="IvAgyMszGvQg7MPu8ID8-52" target="IvAgyMszGvQg7MPu8ID8-42">
          <mxGeometry relative="1" as="geometry" />
        </mxCell>
        <mxCell id="IvAgyMszGvQg7MPu8ID8-52" value="make" style="ellipse;whiteSpace=wrap;html=1;align=center;" vertex="1" parent="1">
          <mxGeometry x="530" y="650" width="100" height="40" as="geometry" />
        </mxCell>
        <mxCell id="IvAgyMszGvQg7MPu8ID8-57" value="" style="edgeStyle=orthogonalEdgeStyle;rounded=0;orthogonalLoop=1;jettySize=auto;html=1;endArrow=none;endFill=0;" edge="1" parent="1" source="IvAgyMszGvQg7MPu8ID8-53" target="IvAgyMszGvQg7MPu8ID8-42">
          <mxGeometry relative="1" as="geometry" />
        </mxCell>
        <mxCell id="IvAgyMszGvQg7MPu8ID8-53" value="picture" style="ellipse;whiteSpace=wrap;html=1;align=center;" vertex="1" parent="1">
          <mxGeometry x="625" y="680" width="100" height="40" as="geometry" />
        </mxCell>
        <mxCell id="IvAgyMszGvQg7MPu8ID8-59" style="edgeStyle=orthogonalEdgeStyle;rounded=0;orthogonalLoop=1;jettySize=auto;html=1;exitX=0.5;exitY=0;exitDx=0;exitDy=0;entryX=0.75;entryY=1;entryDx=0;entryDy=0;endArrow=none;endFill=0;" edge="1" parent="1" source="IvAgyMszGvQg7MPu8ID8-54" target="IvAgyMszGvQg7MPu8ID8-42">
          <mxGeometry relative="1" as="geometry" />
        </mxCell>
        <mxCell id="IvAgyMszGvQg7MPu8ID8-54" value="plate number" style="ellipse;whiteSpace=wrap;html=1;align=center;fontStyle=4;" vertex="1" parent="1">
          <mxGeometry x="730" y="680" width="100" height="40" as="geometry" />
        </mxCell>
        <mxCell id="IvAgyMszGvQg7MPu8ID8-63" value="" style="edgeStyle=orthogonalEdgeStyle;rounded=0;orthogonalLoop=1;jettySize=auto;html=1;endArrow=none;endFill=0;" edge="1" parent="1" source="IvAgyMszGvQg7MPu8ID8-62" target="IvAgyMszGvQg7MPu8ID8-43">
          <mxGeometry relative="1" as="geometry" />
        </mxCell>
        <mxCell id="IvAgyMszGvQg7MPu8ID8-62" value="license number" style="ellipse;whiteSpace=wrap;html=1;align=center;" vertex="1" parent="1">
          <mxGeometry x="1030" y="530" width="100" height="40" as="geometry" />
        </mxCell>
        <mxCell id="IvAgyMszGvQg7MPu8ID8-72" style="edgeStyle=orthogonalEdgeStyle;rounded=0;orthogonalLoop=1;jettySize=auto;html=1;exitX=0;exitY=0.5;exitDx=0;exitDy=0;entryX=1;entryY=0;entryDx=0;entryDy=0;endArrow=none;endFill=0;" edge="1" parent="1" source="IvAgyMszGvQg7MPu8ID8-64" target="IvAgyMszGvQg7MPu8ID8-41">
          <mxGeometry relative="1" as="geometry" />
        </mxCell>
        <mxCell id="IvAgyMszGvQg7MPu8ID8-64" value="front view" style="ellipse;whiteSpace=wrap;html=1;align=center;" vertex="1" parent="1">
          <mxGeometry x="990" y="130" width="100" height="40" as="geometry" />
        </mxCell>
        <mxCell id="IvAgyMszGvQg7MPu8ID8-70" style="edgeStyle=orthogonalEdgeStyle;rounded=0;orthogonalLoop=1;jettySize=auto;html=1;exitX=0.5;exitY=0;exitDx=0;exitDy=0;entryX=0.75;entryY=1;entryDx=0;entryDy=0;endArrow=none;endFill=0;" edge="1" parent="1" source="IvAgyMszGvQg7MPu8ID8-65" target="IvAgyMszGvQg7MPu8ID8-41">
          <mxGeometry relative="1" as="geometry" />
        </mxCell>
        <mxCell id="IvAgyMszGvQg7MPu8ID8-65" value="year&amp;nbsp; built" style="ellipse;whiteSpace=wrap;html=1;align=center;" vertex="1" parent="1">
          <mxGeometry x="900" y="220" width="100" height="40" as="geometry" />
        </mxCell>
        <mxCell id="IvAgyMszGvQg7MPu8ID8-71" style="edgeStyle=orthogonalEdgeStyle;rounded=0;orthogonalLoop=1;jettySize=auto;html=1;exitX=0;exitY=0;exitDx=0;exitDy=0;entryX=1;entryY=0.75;entryDx=0;entryDy=0;endArrow=none;endFill=0;" edge="1" parent="1" source="IvAgyMszGvQg7MPu8ID8-66" target="IvAgyMszGvQg7MPu8ID8-41">
          <mxGeometry relative="1" as="geometry" />
        </mxCell>
        <mxCell id="IvAgyMszGvQg7MPu8ID8-66" value="value" style="ellipse;whiteSpace=wrap;html=1;align=center;" vertex="1" parent="1">
          <mxGeometry x="1000" y="190" width="100" height="40" as="geometry" />
        </mxCell>
        <mxCell id="IvAgyMszGvQg7MPu8ID8-73" style="edgeStyle=orthogonalEdgeStyle;rounded=0;orthogonalLoop=1;jettySize=auto;html=1;exitX=0;exitY=1;exitDx=0;exitDy=0;entryX=0.68;entryY=0;entryDx=0;entryDy=0;entryPerimeter=0;endArrow=none;endFill=0;" edge="1" parent="1" source="IvAgyMszGvQg7MPu8ID8-68" target="IvAgyMszGvQg7MPu8ID8-41">
          <mxGeometry relative="1" as="geometry" />
        </mxCell>
        <mxCell id="IvAgyMszGvQg7MPu8ID8-68" value="address" style="ellipse;whiteSpace=wrap;html=1;align=center;fontStyle=4;" vertex="1" parent="1">
          <mxGeometry x="940" y="70" width="100" height="40" as="geometry" />
        </mxCell>
        <mxCell id="IvAgyMszGvQg7MPu8ID8-75" value="" style="edgeStyle=orthogonalEdgeStyle;rounded=0;orthogonalLoop=1;jettySize=auto;html=1;endArrow=none;endFill=0;" edge="1" parent="1" source="IvAgyMszGvQg7MPu8ID8-74" target="IvAgyMszGvQg7MPu8ID8-25">
          <mxGeometry relative="1" as="geometry" />
        </mxCell>
        <mxCell id="IvAgyMszGvQg7MPu8ID8-74" value="house&amp;nbsp; information" style="ellipse;whiteSpace=wrap;html=1;align=center;" vertex="1" parent="1">
          <mxGeometry x="810" y="270" width="100" height="40" as="geometry" />
        </mxCell>
        <mxCell id="IvAgyMszGvQg7MPu8ID8-78" style="edgeStyle=orthogonalEdgeStyle;rounded=0;orthogonalLoop=1;jettySize=auto;html=1;exitX=1;exitY=0;exitDx=0;exitDy=0;entryX=0.087;entryY=1.033;entryDx=0;entryDy=0;entryPerimeter=0;endArrow=none;endFill=0;" edge="1" parent="1" source="IvAgyMszGvQg7MPu8ID8-76" target="IvAgyMszGvQg7MPu8ID8-23">
          <mxGeometry relative="1" as="geometry" />
        </mxCell>
        <mxCell id="IvAgyMszGvQg7MPu8ID8-76" value="driver&amp;nbsp; infromation" style="ellipse;whiteSpace=wrap;html=1;align=center;" vertex="1" parent="1">
          <mxGeometry x="530" y="410" width="100" height="40" as="geometry" />
        </mxCell>
        <mxCell id="IvAgyMszGvQg7MPu8ID8-77" value="vehicle information" style="ellipse;whiteSpace=wrap;html=1;align=center;" vertex="1" parent="1">
          <mxGeometry x="760" y="415" width="100" height="40" as="geometry" />
        </mxCell>
        <mxCell id="IvAgyMszGvQg7MPu8ID8-81" value="" style="edgeStyle=orthogonalEdgeStyle;rounded=0;orthogonalLoop=1;jettySize=auto;html=1;endArrow=none;endFill=0;" edge="1" parent="1" source="IvAgyMszGvQg7MPu8ID8-80" target="IvAgyMszGvQg7MPu8ID8-17">
          <mxGeometry relative="1" as="geometry" />
        </mxCell>
        <mxCell id="IvAgyMszGvQg7MPu8ID8-133" value="" style="edgeStyle=orthogonalEdgeStyle;rounded=0;orthogonalLoop=1;jettySize=auto;html=1;endArrow=none;endFill=0;" edge="1" parent="1" source="IvAgyMszGvQg7MPu8ID8-80" target="IvAgyMszGvQg7MPu8ID8-105">
          <mxGeometry relative="1" as="geometry" />
        </mxCell>
        <mxCell id="IvAgyMszGvQg7MPu8ID8-80" value="beneficiary" style="ellipse;whiteSpace=wrap;html=1;align=center;" vertex="1" parent="1">
          <mxGeometry x="160" y="155" width="100" height="40" as="geometry" />
        </mxCell>
        <mxCell id="IvAgyMszGvQg7MPu8ID8-85" style="edgeStyle=orthogonalEdgeStyle;rounded=0;orthogonalLoop=1;jettySize=auto;html=1;exitX=0;exitY=0.5;exitDx=0;exitDy=0;entryX=1;entryY=1;entryDx=0;entryDy=0;endArrow=none;endFill=0;" edge="1" parent="1" source="IvAgyMszGvQg7MPu8ID8-82" target="IvAgyMszGvQg7MPu8ID8-17">
          <mxGeometry relative="1" as="geometry" />
        </mxCell>
        <mxCell id="IvAgyMszGvQg7MPu8ID8-82" value="insured person" style="ellipse;whiteSpace=wrap;html=1;align=center;" vertex="1" parent="1">
          <mxGeometry x="410" y="150" width="100" height="40" as="geometry" />
        </mxCell>
        <mxCell id="IvAgyMszGvQg7MPu8ID8-86" value="PAYMENTS" style="whiteSpace=wrap;html=1;align=center;" vertex="1" parent="1">
          <mxGeometry x="275" y="-180" width="100" height="40" as="geometry" />
        </mxCell>
        <mxCell id="IvAgyMszGvQg7MPu8ID8-91" style="edgeStyle=orthogonalEdgeStyle;rounded=0;orthogonalLoop=1;jettySize=auto;html=1;exitX=0.5;exitY=1;exitDx=0;exitDy=0;entryX=0.25;entryY=0;entryDx=0;entryDy=0;endArrow=none;endFill=0;" edge="1" parent="1" source="IvAgyMszGvQg7MPu8ID8-88" target="IvAgyMszGvQg7MPu8ID8-86">
          <mxGeometry relative="1" as="geometry" />
        </mxCell>
        <mxCell id="IvAgyMszGvQg7MPu8ID8-88" value="amount" style="ellipse;whiteSpace=wrap;html=1;align=center;" vertex="1" parent="1">
          <mxGeometry x="220" y="-260" width="100" height="40" as="geometry" />
        </mxCell>
        <mxCell id="IvAgyMszGvQg7MPu8ID8-92" style="edgeStyle=orthogonalEdgeStyle;rounded=0;orthogonalLoop=1;jettySize=auto;html=1;exitX=0;exitY=1;exitDx=0;exitDy=0;entryX=0.5;entryY=0;entryDx=0;entryDy=0;endArrow=none;endFill=0;" edge="1" parent="1" source="IvAgyMszGvQg7MPu8ID8-90" target="IvAgyMszGvQg7MPu8ID8-86">
          <mxGeometry relative="1" as="geometry" />
        </mxCell>
        <mxCell id="IvAgyMszGvQg7MPu8ID8-90" value="&lt;span style=&quot;border-bottom: 1px dotted&quot;&gt;date-time&lt;/span&gt;" style="ellipse;whiteSpace=wrap;html=1;align=center;" vertex="1" parent="1">
          <mxGeometry x="350" y="-260" width="100" height="40" as="geometry" />
        </mxCell>
        <mxCell id="IvAgyMszGvQg7MPu8ID8-103" style="edgeStyle=orthogonalEdgeStyle;rounded=0;orthogonalLoop=1;jettySize=auto;html=1;exitX=0;exitY=0.5;exitDx=0;exitDy=0;entryX=1;entryY=0.75;entryDx=0;entryDy=0;endArrow=none;endFill=0;" edge="1" parent="1" source="IvAgyMszGvQg7MPu8ID8-93" target="IvAgyMszGvQg7MPu8ID8-35">
          <mxGeometry relative="1" as="geometry" />
        </mxCell>
        <mxCell id="IvAgyMszGvQg7MPu8ID8-93" value="name" style="ellipse;whiteSpace=wrap;html=1;align=center;" vertex="1" parent="1">
          <mxGeometry x="650" y="-180" width="100" height="40" as="geometry" />
        </mxCell>
        <mxCell id="IvAgyMszGvQg7MPu8ID8-100" style="edgeStyle=orthogonalEdgeStyle;rounded=0;orthogonalLoop=1;jettySize=auto;html=1;exitX=0;exitY=1;exitDx=0;exitDy=0;entryX=0.75;entryY=0;entryDx=0;entryDy=0;endArrow=none;endFill=0;" edge="1" parent="1" source="IvAgyMszGvQg7MPu8ID8-94" target="IvAgyMszGvQg7MPu8ID8-35">
          <mxGeometry relative="1" as="geometry" />
        </mxCell>
        <mxCell id="IvAgyMszGvQg7MPu8ID8-94" value="email" style="ellipse;whiteSpace=wrap;html=1;align=center;" vertex="1" parent="1">
          <mxGeometry x="610" y="-280" width="100" height="40" as="geometry" />
        </mxCell>
        <mxCell id="IvAgyMszGvQg7MPu8ID8-104" style="edgeStyle=orthogonalEdgeStyle;rounded=0;orthogonalLoop=1;jettySize=auto;html=1;exitX=0;exitY=0;exitDx=0;exitDy=0;entryX=0.75;entryY=1;entryDx=0;entryDy=0;endArrow=none;endFill=0;" edge="1" parent="1" source="IvAgyMszGvQg7MPu8ID8-95" target="IvAgyMszGvQg7MPu8ID8-35">
          <mxGeometry relative="1" as="geometry" />
        </mxCell>
        <mxCell id="IvAgyMszGvQg7MPu8ID8-95" value="fax number" style="ellipse;whiteSpace=wrap;html=1;align=center;" vertex="1" parent="1">
          <mxGeometry x="655" y="-130" width="100" height="40" as="geometry" />
        </mxCell>
        <mxCell id="IvAgyMszGvQg7MPu8ID8-102" style="edgeStyle=orthogonalEdgeStyle;rounded=0;orthogonalLoop=1;jettySize=auto;html=1;exitX=0;exitY=0.5;exitDx=0;exitDy=0;entryX=1;entryY=0.25;entryDx=0;entryDy=0;endArrow=none;endFill=0;" edge="1" parent="1" source="IvAgyMszGvQg7MPu8ID8-96" target="IvAgyMszGvQg7MPu8ID8-35">
          <mxGeometry relative="1" as="geometry" />
        </mxCell>
        <mxCell id="IvAgyMszGvQg7MPu8ID8-96" value="phone number" style="ellipse;whiteSpace=wrap;html=1;align=center;" vertex="1" parent="1">
          <mxGeometry x="660" y="-230" width="100" height="40" as="geometry" />
        </mxCell>
        <mxCell id="IvAgyMszGvQg7MPu8ID8-99" value="" style="edgeStyle=orthogonalEdgeStyle;rounded=0;orthogonalLoop=1;jettySize=auto;html=1;endArrow=none;endFill=0;" edge="1" parent="1" source="IvAgyMszGvQg7MPu8ID8-98" target="IvAgyMszGvQg7MPu8ID8-35">
          <mxGeometry relative="1" as="geometry" />
        </mxCell>
        <mxCell id="IvAgyMszGvQg7MPu8ID8-98" value="office address" style="ellipse;whiteSpace=wrap;html=1;align=center;fontStyle=4;" vertex="1" parent="1">
          <mxGeometry x="510" y="-270" width="100" height="40" as="geometry" />
        </mxCell>
        <mxCell id="IvAgyMszGvQg7MPu8ID8-105" value="CLIENTS" style="whiteSpace=wrap;html=1;align=center;" vertex="1" parent="1">
          <mxGeometry x="80" y="310" width="100" height="40" as="geometry" />
        </mxCell>
        <mxCell id="IvAgyMszGvQg7MPu8ID8-106" style="edgeStyle=orthogonalEdgeStyle;rounded=0;orthogonalLoop=1;jettySize=auto;html=1;exitX=0.5;exitY=1;exitDx=0;exitDy=0;entryX=0;entryY=0.5;entryDx=0;entryDy=0;endArrow=none;endFill=0;" edge="1" parent="1" source="IvAgyMszGvQg7MPu8ID8-20" target="IvAgyMszGvQg7MPu8ID8-105">
          <mxGeometry relative="1" as="geometry">
            <mxPoint x="110" y="240" as="sourcePoint" />
            <mxPoint x="270" y="330" as="targetPoint" />
          </mxGeometry>
        </mxCell>
        <mxCell id="IvAgyMszGvQg7MPu8ID8-108" value="effective date" style="ellipse;whiteSpace=wrap;html=1;align=center;" vertex="1" parent="1">
          <mxGeometry x="380" y="-10" width="100" height="40" as="geometry" />
        </mxCell>
        <mxCell id="IvAgyMszGvQg7MPu8ID8-109" value="annual fee" style="ellipse;whiteSpace=wrap;html=1;align=center;" vertex="1" parent="1">
          <mxGeometry x="400" y="-70" width="100" height="40" as="geometry" />
        </mxCell>
        <mxCell id="IvAgyMszGvQg7MPu8ID8-117" style="edgeStyle=orthogonalEdgeStyle;rounded=0;orthogonalLoop=1;jettySize=auto;html=1;exitX=0;exitY=0;exitDx=0;exitDy=0;entryX=1;entryY=0.5;entryDx=0;entryDy=0;endArrow=none;endFill=0;" edge="1" parent="1" source="IvAgyMszGvQg7MPu8ID8-110" target="IvAgyMszGvQg7MPu8ID8-29">
          <mxGeometry relative="1" as="geometry" />
        </mxCell>
        <mxCell id="IvAgyMszGvQg7MPu8ID8-110" value="coverage" style="ellipse;whiteSpace=wrap;html=1;align=center;" vertex="1" parent="1">
          <mxGeometry x="770" width="100" height="40" as="geometry" />
        </mxCell>
        <mxCell id="IvAgyMszGvQg7MPu8ID8-115" style="edgeStyle=orthogonalEdgeStyle;rounded=0;orthogonalLoop=1;jettySize=auto;html=1;exitX=1;exitY=0;exitDx=0;exitDy=0;entryX=0;entryY=0.75;entryDx=0;entryDy=0;endArrow=none;endFill=0;" edge="1" parent="1" source="IvAgyMszGvQg7MPu8ID8-111" target="IvAgyMszGvQg7MPu8ID8-29">
          <mxGeometry relative="1" as="geometry" />
        </mxCell>
        <mxCell id="IvAgyMszGvQg7MPu8ID8-111" value="expiry date" style="ellipse;whiteSpace=wrap;html=1;align=center;" vertex="1" parent="1">
          <mxGeometry x="110" y="-30" width="100" height="40" as="geometry" />
        </mxCell>
        <mxCell id="IvAgyMszGvQg7MPu8ID8-116" style="edgeStyle=orthogonalEdgeStyle;rounded=0;orthogonalLoop=1;jettySize=auto;html=1;exitX=0;exitY=0;exitDx=0;exitDy=0;entryX=1;entryY=0.75;entryDx=0;entryDy=0;endArrow=none;endFill=0;" edge="1" parent="1" source="IvAgyMszGvQg7MPu8ID8-112" target="IvAgyMszGvQg7MPu8ID8-29">
          <mxGeometry relative="1" as="geometry" />
        </mxCell>
        <mxCell id="IvAgyMszGvQg7MPu8ID8-112" value="customer information" style="ellipse;whiteSpace=wrap;html=1;align=center;" vertex="1" parent="1">
          <mxGeometry x="660" y="30" width="100" height="40" as="geometry" />
        </mxCell>
        <mxCell id="IvAgyMszGvQg7MPu8ID8-114" value="policy number" style="ellipse;whiteSpace=wrap;html=1;align=center;fontStyle=4;" vertex="1" parent="1">
          <mxGeometry x="180" y="20" width="100" height="40" as="geometry" />
        </mxCell>
        <mxCell id="IvAgyMszGvQg7MPu8ID8-122" value="" style="edgeStyle=orthogonalEdgeStyle;rounded=0;orthogonalLoop=1;jettySize=auto;html=1;endArrow=none;endFill=0;" edge="1" parent="1" source="IvAgyMszGvQg7MPu8ID8-121" target="IvAgyMszGvQg7MPu8ID8-11">
          <mxGeometry relative="1" as="geometry" />
        </mxCell>
        <mxCell id="IvAgyMszGvQg7MPu8ID8-121" value="phone number" style="whiteSpace=wrap;html=1;align=center;" vertex="1" parent="1">
          <mxGeometry x="270" y="380" width="100" height="40" as="geometry" />
        </mxCell>
        <mxCell id="IvAgyMszGvQg7MPu8ID8-128" style="edgeStyle=orthogonalEdgeStyle;rounded=0;orthogonalLoop=1;jettySize=auto;html=1;exitX=0.5;exitY=0;exitDx=0;exitDy=0;entryX=0;entryY=1;entryDx=0;entryDy=0;endArrow=none;endFill=0;" edge="1" parent="1" source="IvAgyMszGvQg7MPu8ID8-123" target="IvAgyMszGvQg7MPu8ID8-105">
          <mxGeometry relative="1" as="geometry" />
        </mxCell>
        <mxCell id="IvAgyMszGvQg7MPu8ID8-123" value="name&amp;nbsp;" style="ellipse;whiteSpace=wrap;html=1;align=center;" vertex="1" parent="1">
          <mxGeometry x="-80" y="450" width="100" height="40" as="geometry" />
        </mxCell>
        <mxCell id="IvAgyMszGvQg7MPu8ID8-130" style="edgeStyle=orthogonalEdgeStyle;rounded=0;orthogonalLoop=1;jettySize=auto;html=1;exitX=0;exitY=0;exitDx=0;exitDy=0;entryX=0.75;entryY=1;entryDx=0;entryDy=0;endArrow=none;endFill=0;" edge="1" parent="1" source="IvAgyMszGvQg7MPu8ID8-124" target="IvAgyMszGvQg7MPu8ID8-105">
          <mxGeometry relative="1" as="geometry" />
        </mxCell>
        <mxCell id="IvAgyMszGvQg7MPu8ID8-124" value="address" style="ellipse;whiteSpace=wrap;html=1;align=center;" vertex="1" parent="1">
          <mxGeometry x="160" y="410" width="100" height="40" as="geometry" />
        </mxCell>
        <mxCell id="IvAgyMszGvQg7MPu8ID8-129" style="edgeStyle=orthogonalEdgeStyle;rounded=0;orthogonalLoop=1;jettySize=auto;html=1;exitX=0.5;exitY=0;exitDx=0;exitDy=0;entryX=0.25;entryY=1;entryDx=0;entryDy=0;endArrow=none;endFill=0;" edge="1" parent="1" source="IvAgyMszGvQg7MPu8ID8-125" target="IvAgyMszGvQg7MPu8ID8-105">
          <mxGeometry relative="1" as="geometry" />
        </mxCell>
        <mxCell id="IvAgyMszGvQg7MPu8ID8-125" value="date of birth" style="ellipse;whiteSpace=wrap;html=1;align=center;" vertex="1" parent="1">
          <mxGeometry x="-5" y="420" width="100" height="40" as="geometry" />
        </mxCell>
        <mxCell id="IvAgyMszGvQg7MPu8ID8-127" style="edgeStyle=orthogonalEdgeStyle;rounded=0;orthogonalLoop=1;jettySize=auto;html=1;exitX=1;exitY=0;exitDx=0;exitDy=0;entryX=0;entryY=0.75;entryDx=0;entryDy=0;endArrow=none;endFill=0;" edge="1" parent="1" source="IvAgyMszGvQg7MPu8ID8-126" target="IvAgyMszGvQg7MPu8ID8-105">
          <mxGeometry relative="1" as="geometry" />
        </mxCell>
        <mxCell id="IvAgyMszGvQg7MPu8ID8-126" value="SIN" style="ellipse;whiteSpace=wrap;html=1;align=center;fontStyle=4;" vertex="1" parent="1">
          <mxGeometry x="-70" y="350" width="100" height="40" as="geometry" />
        </mxCell>
        <mxCell id="IvAgyMszGvQg7MPu8ID8-134" value="&lt;font style=&quot;font-size: 33px&quot;&gt;U&lt;/font&gt;" style="text;html=1;align=center;verticalAlign=middle;resizable=0;points=[];autosize=1;direction=north;rotation=0;" vertex="1" parent="1">
          <mxGeometry x="605" y="145" width="30" height="40" as="geometry" />
        </mxCell>
        <mxCell id="IvAgyMszGvQg7MPu8ID8-135" value="&lt;font style=&quot;font-size: 33px&quot;&gt;U&lt;/font&gt;" style="text;html=1;align=center;verticalAlign=middle;resizable=0;points=[];autosize=1;direction=north;rotation=0;" vertex="1" parent="1">
          <mxGeometry x="575" y="325" width="30" height="40" as="geometry" />
        </mxCell>
        <mxCell id="IvAgyMszGvQg7MPu8ID8-137" value="&lt;font style=&quot;font-size: 33px&quot;&gt;U&lt;/font&gt;" style="text;html=1;align=center;verticalAlign=middle;resizable=0;points=[];autosize=1;direction=north;rotation=90;" vertex="1" parent="1">
          <mxGeometry x="380" y="100" width="30" height="40" as="geometry" />
        </mxCell>
        <mxCell id="IvAgyMszGvQg7MPu8ID8-139" value="&lt;font style=&quot;font-size: 33px&quot;&gt;U&lt;/font&gt;" style="text;html=1;align=center;verticalAlign=middle;resizable=0;points=[];autosize=1;direction=north;rotation=90;" vertex="1" parent="1">
          <mxGeometry x="130" y="350" width="30" height="40" as="geometry" />
        </mxCell>
        <mxCell id="IvAgyMszGvQg7MPu8ID8-141" value="&lt;font style=&quot;font-size: 33px&quot;&gt;U&lt;/font&gt;" style="text;html=1;align=center;verticalAlign=middle;resizable=0;points=[];autosize=1;direction=north;rotation=180;" vertex="1" parent="1">
          <mxGeometry x="-5" y="210" width="30" height="40" as="geometry" />
        </mxCell>
        <mxCell id="IvAgyMszGvQg7MPu8ID8-145" value="&lt;font style=&quot;font-size: 33px&quot;&gt;U&lt;/font&gt;" style="text;html=1;align=center;verticalAlign=middle;resizable=0;points=[];autosize=1;direction=north;rotation=90;" vertex="1" parent="1">
          <mxGeometry x="120" y="530" width="30" height="40" as="geometry" />
        </mxCell>
      </root>
    </mxGraphModel>
  </diagram>
</mxfile>
